<svg width="22" height="21" viewBox="0 0 22 21" fill="none" xmlns="http://www.w3.org/2000/svg">
<path d="M20.9731 18.6874C19.6878 16.4315 17.6807 14.6737 15.275 13.6971C16.4713 12.7998 17.355 11.5489 17.8009 10.1215C18.2468 8.69412 18.2322 7.16262 17.7593 5.74395C17.2865 4.32527 16.3792 3.09135 15.166 2.21697C13.9529 1.34259 12.4954 0.87207 11 0.87207C9.50457 0.87207 8.04706 1.34259 6.83392 2.21697C5.62078 3.09135 4.7135 4.32527 4.24061 5.74395C3.76772 7.16262 3.75319 8.69412 4.19907 10.1215C4.64496 11.5489 5.52865 12.7998 6.72498 13.6971C4.31928 14.6737 2.31221 16.4315 1.02686 18.6874C0.94721 18.8154 0.894127 18.9582 0.870762 19.1072C0.847396 19.2562 0.854226 19.4084 0.890844 19.5547C0.927462 19.701 0.993122 19.8384 1.08392 19.9588C1.17472 20.0792 1.2888 20.1802 1.41938 20.2556C1.54996 20.3311 1.69438 20.3795 1.84405 20.398C1.99373 20.4165 2.14559 20.4047 2.29062 20.3634C2.43566 20.322 2.57089 20.252 2.6883 20.1573C2.8057 20.0626 2.90288 19.9453 2.97404 19.8124C4.67279 16.8761 7.67279 15.1249 11 15.1249C14.3272 15.1249 17.3272 16.8771 19.0259 19.8124C19.1802 20.0604 19.4248 20.2387 19.7081 20.3096C19.9914 20.3805 20.2912 20.3385 20.544 20.1924C20.7969 20.0463 20.9831 19.8076 21.0631 19.5267C21.1432 19.2458 21.1109 18.9449 20.9731 18.6874ZM6.12498 7.99988C6.12498 7.0357 6.41089 6.09317 6.94657 5.29148C7.48224 4.48979 8.24361 3.86495 9.1344 3.49597C10.0252 3.12699 11.0054 3.03045 11.951 3.21855C12.8967 3.40666 13.7653 3.87096 14.4471 4.55274C15.1289 5.23452 15.5932 6.10316 15.7813 7.04882C15.9694 7.99447 15.8729 8.97467 15.5039 9.86546C15.1349 10.7563 14.5101 11.5176 13.7084 12.0533C12.9067 12.589 11.9642 12.8749 11 12.8749C9.70751 12.8734 8.4684 12.3593 7.55448 11.4454C6.64056 10.5315 6.12647 9.29236 6.12498 7.99988Z" fill="#86888D"/>
</svg>
