<svg width="25" height="25" viewBox="0 0 25 25" fill="none" xmlns="http://www.w3.org/2000/svg">
<path d="M15.5645 3.3633H9.56445C8.50359 3.3633 7.48617 3.78472 6.73603 4.53487C5.98588 5.28501 5.56445 6.30243 5.56445 7.3633V15.3633" stroke="#1D85FF" stroke-width="2"/>
<path d="M9.56445 11.8633C9.56445 10.6673 9.56545 9.8533 9.63545 9.2353C9.70345 8.6373 9.82345 8.3463 9.97745 8.1453C10.0841 8.00664 10.2085 7.88259 10.3475 7.7763C10.5475 7.6223 10.8385 7.5023 11.4375 7.4343C12.0545 7.3643 12.8675 7.3633 14.0645 7.3633C15.2605 7.3633 16.0745 7.3643 16.6925 7.4343C17.2905 7.5023 17.5815 7.6223 17.7825 7.7763C17.9205 7.8833 18.0445 8.0063 18.1515 8.1463C18.3055 8.3463 18.4255 8.6373 18.4935 9.2363C18.5635 9.8543 18.5645 10.6673 18.5645 11.8633V15.8633C18.5645 17.0593 18.5625 17.8733 18.4935 18.4913C18.4255 19.0893 18.3055 19.3803 18.1515 19.5813C18.0446 19.7198 17.9202 19.8438 17.7815 19.9503C17.5815 20.1043 17.2905 20.2243 16.6915 20.2923C16.0735 20.3623 15.2605 20.3633 14.0645 20.3633C12.8685 20.3633 12.0545 20.3613 11.4365 20.2923C10.8385 20.2243 10.5475 20.1043 10.3465 19.9503C10.2078 19.8436 10.0837 19.7192 9.97745 19.5803C9.82345 19.3803 9.70345 19.0893 9.63545 18.4903C9.56545 17.8733 9.56445 17.0603 9.56445 15.8633V11.8633Z" stroke="#1D85FF" stroke-width="2"/>
</svg>
