<svg width="19" height="20" viewBox="0 0 19 20" fill="none" xmlns="http://www.w3.org/2000/svg">
<path d="M13.313 3H15.313C15.8434 3 16.3521 3.21071 16.7272 3.58579C17.1023 3.96086 17.313 4.46957 17.313 5V7H1.31299V5C1.31299 4.46957 1.5237 3.96086 1.89877 3.58579C2.27385 3.21071 2.78256 3 3.31299 3H5.31299M13.313 3V1M13.313 3H5.31299M5.31299 3V1M1.31299 7.5V17C1.31299 17.5304 1.5237 18.0391 1.89877 18.4142C2.27385 18.7893 2.78256 19 3.31299 19H15.313C15.8434 19 16.3521 18.7893 16.7272 18.4142C17.1023 18.0391 17.313 17.5304 17.313 17V7.5" stroke="#878787" stroke-width="2" stroke-linecap="round" stroke-linejoin="round"/>
</svg>
