<svg width="7" height="27" viewBox="0 0 7 27" fill="none" xmlns="http://www.w3.org/2000/svg">
<path d="M0.899902 24.025C0.899902 23.3288 1.17646 22.6611 1.66875 22.1688C2.16103 21.6766 2.82871 21.4 3.5249 21.4C4.2211 21.4 4.88877 21.6766 5.38106 22.1688C5.87334 22.6611 6.1499 23.3288 6.1499 24.025C6.1499 24.7212 5.87334 25.3889 5.38106 25.8811C4.88877 26.3734 4.2211 26.65 3.5249 26.65C2.82871 26.65 2.16103 26.3734 1.66875 25.8811C1.17646 25.3889 0.899902 24.7212 0.899902 24.025ZM0.899902 13.525C0.899902 12.8288 1.17646 12.1611 1.66875 11.6688C2.16103 11.1766 2.82871 10.9 3.5249 10.9C4.2211 10.9 4.88877 11.1766 5.38106 11.6688C5.87334 12.1611 6.1499 12.8288 6.1499 13.525C6.1499 14.2212 5.87334 14.8889 5.38106 15.3811C4.88877 15.8734 4.2211 16.15 3.5249 16.15C2.82871 16.15 2.16103 15.8734 1.66875 15.3811C1.17646 14.8889 0.899902 14.2212 0.899902 13.525ZM0.899902 3.02499C0.899902 2.3288 1.17646 1.66112 1.66875 1.16884C2.16103 0.676556 2.82871 0.399994 3.5249 0.399994C4.2211 0.399994 4.88877 0.676556 5.38106 1.16884C5.87334 1.66112 6.1499 2.3288 6.1499 3.02499C6.1499 3.72119 5.87334 4.38887 5.38106 4.88115C4.88877 5.37343 4.2211 5.64999 3.5249 5.64999C2.82871 5.64999 2.16103 5.37343 1.66875 4.88115C1.17646 4.38887 0.899902 3.72119 0.899902 3.02499Z" fill="#737373"/>
</svg>
