<svg width="28" height="28" viewBox="0 0 28 28" fill="none" xmlns="http://www.w3.org/2000/svg">
<path d="M16.3334 5.83333V22.1667H11.6667V5.83333H16.3334ZM23.3334 3.5H21.0001V5.83333H18.6667V3.5H9.33341V5.83333H7.00008V3.5H4.66675V24.5H7.00008V22.1667H9.33341V24.5H18.6667V22.1667H21.0001V24.5H23.3334V3.5ZM18.6667 10.5V8.16667H21.0001V10.5H18.6667ZM7.00008 10.5V8.16667H9.33341V10.5H7.00008ZM18.6667 15.1667V12.8333H21.0001V15.1667H18.6667ZM7.00008 15.1667V12.8333H9.33341V15.1667H7.00008ZM18.6667 19.8333V17.5H21.0001V19.8333H18.6667ZM7.00008 19.8333V17.5H9.33341V19.8333H7.00008Z" fill="#1D85FF"/>
</svg>
