<svg width="32" height="32" viewBox="0 0 32 32" fill="none" xmlns="http://www.w3.org/2000/svg">
<path d="M0 13H32V20H0V13Z" fill="#2B3990"/>
<path d="M27 5.5H5C1.6865 5.5 0 7.9625 0 11V13H32V11C32 7.9625 30.3135 5.5 27 5.5Z" fill="#F9CB38"/>
<path d="M0 22C0 25.0375 1.6865 27.5 5 27.5H27C30.3135 27.5 32 25.0375 32 22V20H0V22Z" fill="#EC1C24"/>
<path d="M14.525 13.145L14.8575 13.818L15.6 13.927L15.065 14.4525L15.1905 15.194L14.525 14.844L13.8575 15.194L13.985 14.4525L13.446 13.927L14.191 13.818L14.525 13.145ZM17.445 13.145L17.778 13.818L18.525 13.927L17.984 14.4525L18.11 15.194L17.445 14.844L16.778 15.194L16.9055 14.4525L16.366 13.927L17.11 13.818L17.445 13.145ZM11.4715 13.6855L11.804 14.3605L12.55 14.4685L12.01 14.995L12.1375 15.736L11.4715 15.385L10.805 15.736L10.9325 14.995L10.393 14.4685L11.137 14.3605L11.4715 13.6855ZM20.595 13.6855L20.926 14.3605L21.67 14.4685L21.13 14.995L21.259 15.736L20.595 15.385L19.9265 15.736L20.055 14.995L19.515 14.4685L20.259 14.3605L20.595 13.6855ZM23.293 15.2395L23.625 15.9135L24.37 16.025L23.8325 16.55L23.958 17.2885L23.293 16.9385L22.625 17.2885L22.7535 16.55L22.215 16.025L22.9585 15.9135L23.293 15.2395ZM8.75949 15.231L9.09499 15.9055L9.83799 16.015L9.29899 16.54L9.42649 17.2815L8.75949 16.9315L8.09299 17.2815L8.21999 16.54L7.68099 16.015L8.42599 15.9055L8.75949 15.231ZM6.74549 17.63L7.07849 18.302L7.82349 18.4115L7.28399 18.937L7.41199 19.68L6.74549 19.328L6.07899 19.68L6.20599 18.937L5.66699 18.4115L6.41099 18.302L6.74549 17.63ZM25.301 17.63L25.635 18.303L26.379 18.4115L25.84 18.937L25.967 19.68L25.301 19.328L24.635 19.68L24.76 18.937L24.22 18.4115L24.9675 18.303L25.301 17.63Z" fill="#E6E7E8"/>
</svg>
