<svg width="24" height="25" viewBox="0 0 24 25" fill="none" xmlns="http://www.w3.org/2000/svg">
<path d="M21 19.5V12.767C21 12.2245 20.8896 11.6876 20.6756 11.189C20.4616 10.6905 20.1483 10.2407 19.755 9.86701L13.378 3.81001C13.0063 3.4569 12.5132 3.26001 12.0005 3.26001C11.4878 3.26001 10.9947 3.4569 10.623 3.81001L4.245 9.86701C3.85165 10.2407 3.53844 10.6905 3.3244 11.189C3.11037 11.6876 3 12.2245 3 12.767V19.5C3 20.0304 3.21071 20.5392 3.58579 20.9142C3.96086 21.2893 4.46957 21.5 5 21.5H19C19.5304 21.5 20.0391 21.2893 20.4142 20.9142C20.7893 20.5392 21 20.0304 21 19.5Z" stroke="#86888D" stroke-width="2" stroke-linecap="round" stroke-linejoin="round"/>
</svg>
