<svg width="25" height="25" viewBox="0 0 25 25" fill="none" xmlns="http://www.w3.org/2000/svg">
<path fill-rule="evenodd" clip-rule="evenodd" d="M19.7915 16.6145V14.5833H16.93C16.6853 14.5833 16.5634 14.5833 16.4603 14.5937C15.9814 14.6413 15.5338 14.8533 15.1935 15.1936C14.8533 15.5339 14.6413 15.9815 14.5936 16.4603C14.5832 16.5635 14.5832 16.6853 14.5832 16.9291C14.5832 17.2208 14.5832 17.3666 14.5957 17.4822C14.6561 18.0223 14.9253 18.5173 15.3456 18.8618C15.7659 19.2062 16.3042 19.3728 16.8457 19.326C16.9603 19.3155 17.104 19.2874 17.3894 19.2301L17.6978 19.1676C18.0936 19.0895 18.2925 19.0499 18.4603 18.9853C18.7957 18.8555 19.0918 18.6411 19.3198 18.3629C19.5478 18.0847 19.6999 17.7522 19.7613 17.3978C19.7915 17.2208 19.7915 17.0187 19.7915 16.6145ZM9.37484 18.6978V16.6666H6.51234C6.26859 16.6666 6.14671 16.6666 6.04359 16.677C5.56473 16.7247 5.11714 16.9367 4.77686 17.2769C4.43659 17.6172 4.2246 18.0648 4.17692 18.5437C4.1665 18.6468 4.1665 18.7687 4.1665 19.0124C4.1665 19.3041 4.1665 19.4499 4.179 19.5655C4.23948 20.1056 4.50859 20.6007 4.92893 20.9451C5.34928 21.2896 5.88758 21.4561 6.429 21.4093C6.54359 21.3989 6.68734 21.3708 6.97275 21.3135L7.28109 21.251C7.67692 21.1728 7.87588 21.1333 8.04255 21.0687C8.37819 20.939 8.67454 20.7247 8.90273 20.4465C9.13092 20.1683 9.28316 19.8357 9.34463 19.4812C9.37484 19.3041 9.37484 19.101 9.37484 18.6978Z" fill="#1D85FF"/>
<path d="M9.37484 16.6666V11.4583M9.37484 16.6666V18.6979M9.37484 16.6666H6.51234C6.26859 16.6666 6.14671 16.6666 6.04359 16.677C5.56473 16.7247 5.11714 16.9367 4.77686 17.277C4.43659 17.6173 4.2246 18.0649 4.17692 18.5437M9.37484 11.4583L19.7915 9.37496M9.37484 11.4583V9.66663M9.37484 18.6979V9.66663M9.37484 18.6979C9.37484 19.1031 9.37484 19.3041 9.34359 19.4812M9.37484 18.6979C9.37484 19.101 9.37484 19.3041 9.34359 19.4812M19.7915 14.5833V9.37496M19.7915 14.5833V16.6145C19.7915 17.0198 19.7915 17.2208 19.7603 17.3979M19.7915 14.5833H16.93C16.6863 14.5833 16.5634 14.5833 16.4603 14.5937C15.9814 14.6414 15.5338 14.8534 15.1935 15.1937M19.7915 9.37496V9.24996M9.37484 9.66663C9.37484 8.03121 9.37484 7.2135 9.84671 6.63746C10.3196 6.06142 11.1207 5.901 12.7248 5.58017L14.8082 5.1635C17.1134 4.70205 18.2665 4.47184 19.029 5.09684C19.7915 5.72184 19.7915 6.89788 19.7915 9.24892M19.7915 16.6156C19.7915 17.0187 19.7915 17.2208 19.7603 17.3979M19.7603 17.3979C19.699 17.7522 19.547 18.0846 19.3192 18.3628C19.0914 18.641 18.7955 18.8554 18.4603 18.9854C18.2925 19.05 18.0946 19.0895 17.6978 19.1687L17.3894 19.2312C17.104 19.2875 16.9613 19.3166 16.8446 19.326C16.3034 19.3726 15.7653 19.2059 15.3452 18.8615C14.9251 18.517 14.6561 18.0221 14.5957 17.4823C14.5832 17.3677 14.5832 17.2218 14.5832 16.9302M14.5832 16.9302C14.5832 16.6854 14.5832 16.5635 14.5936 16.4604C14.6413 15.9815 14.8533 15.5339 15.1935 15.1937M14.5832 16.9302C14.5832 16.6854 14.5832 16.5635 14.5936 16.4614C14.641 15.9824 14.8532 15.5341 15.1935 15.1937M9.34359 19.4812C9.28221 19.8356 9.13013 20.1681 8.90213 20.4463C8.67414 20.7245 8.378 20.9389 8.04255 21.0687M8.04255 21.0687C7.87588 21.1333 7.67796 21.1729 7.28213 21.252M8.04255 21.0687C7.87588 21.1333 7.67796 21.1718 7.28213 21.251L6.97275 21.3135C6.68734 21.3698 6.54463 21.3989 6.42796 21.4083C5.88671 21.4549 5.34868 21.2882 4.92856 20.9437M4.92856 20.9437C4.50844 20.5993 4.23948 20.1044 4.179 19.5645C4.1665 19.451 4.1665 19.3052 4.1665 19.0135M4.92856 20.9437C4.50844 20.5993 4.23948 20.1055 4.179 19.5656C4.1665 19.451 4.1665 19.3052 4.1665 19.0135M4.1665 19.0135C4.1665 18.7687 4.1665 18.6468 4.17692 18.5437M4.1665 19.0135C4.1665 18.7687 4.1665 18.6458 4.17692 18.5437" stroke="#1D85FF" stroke-width="2"/>
</svg>
