<svg width="28" height="28" viewBox="0 0 28 28" fill="none" xmlns="http://www.w3.org/2000/svg">
<path d="M12.8332 6.86233V22.4467C12.8329 22.9302 12.6619 23.3981 12.3504 23.768C12.0389 24.1378 11.6069 24.3859 11.1304 24.4684C10.654 24.5509 10.1637 24.4627 9.7459 24.2192C9.32813 23.9757 9.00971 23.5926 8.84671 23.1373L6.34188 15.9623M6.34188 15.9623C5.35163 15.5413 4.53726 14.7922 4.03658 13.8398C3.5359 12.8873 3.37966 11.7911 3.59431 10.7367C3.80895 9.6823 4.38129 8.73443 5.21447 8.0535C6.04766 7.37257 7.09051 7.00041 8.16655 7H10.3039C15.0872 7 19.1997 5.56033 20.9999 3.5V19.8333C19.1997 17.773 15.0884 16.3333 10.3039 16.3333H8.16655C7.53962 16.3342 6.91897 16.2073 6.34188 15.9623ZM20.9999 15.1667C21.9281 15.1667 22.8184 14.7979 23.4748 14.1415C24.1311 13.4852 24.4999 12.5949 24.4999 11.6667C24.4999 10.7384 24.1311 9.84817 23.4748 9.19179C22.8184 8.53542 21.9281 8.16667 20.9999 8.16667" stroke="#1D85FF" stroke-width="2" stroke-linecap="round" stroke-linejoin="round"/>
</svg>
