<svg width="24" height="24" viewBox="0 0 24 24" fill="none" xmlns="http://www.w3.org/2000/svg">
<path d="M10.8332 4.86233V20.4467C10.8329 20.9302 10.6619 21.3981 10.3504 21.768C10.0389 22.1378 9.60685 22.3859 9.1304 22.4684C8.65395 22.5509 8.16366 22.4627 7.7459 22.2192C7.32813 21.9757 7.00971 21.5926 6.84671 21.1373L4.34188 13.9623M4.34188 13.9623C3.35163 13.5413 2.53726 12.7922 2.03658 11.8398C1.5359 10.8873 1.37966 9.79113 1.59431 8.73672C1.80895 7.6823 2.38129 6.73443 3.21447 6.0535C4.04766 5.37257 5.09051 5.00041 6.16655 5H8.30388C13.0872 5 17.1997 3.56033 18.9999 1.5V17.8333C17.1997 15.773 13.0884 14.3333 8.30388 14.3333H6.16655C5.53962 14.3342 4.91897 14.2073 4.34188 13.9623ZM18.9999 13.1667C19.9281 13.1667 20.8184 12.7979 21.4748 12.1415C22.1311 11.4852 22.4999 10.5949 22.4999 9.66667C22.4999 8.73841 22.1311 7.84817 21.4748 7.19179C20.8184 6.53542 19.9281 6.16667 18.9999 6.16667" stroke="#86888D" stroke-width="2" stroke-linecap="round" stroke-linejoin="round"/>
</svg>
