<svg width="29" height="28" viewBox="0 0 29 28" fill="none" xmlns="http://www.w3.org/2000/svg">
<path d="M9.64624 24.5V22.1667H4.97957C4.33791 22.1667 3.7888 21.9384 3.33224 21.4818C2.87568 21.0253 2.64702 20.4758 2.64624 19.8333V5.83333C2.64624 5.19167 2.87491 4.64256 3.33224 4.186C3.78957 3.72944 4.33868 3.50078 4.97957 3.5H23.6462C24.2879 3.5 24.8374 3.72867 25.2947 4.186C25.7521 4.64333 25.9804 5.19244 25.9796 5.83333V19.8333C25.9796 20.475 25.7513 21.0245 25.2947 21.4818C24.8382 21.9392 24.2887 22.1674 23.6462 22.1667H18.9796V24.5H9.64624ZM4.97957 19.8333H23.6462V5.83333H4.97957V19.8333Z" fill="#878787"/>
</svg>
