<svg width="24" height="24" viewBox="0 0 24 24" fill="none" xmlns="http://www.w3.org/2000/svg">
<path d="M14 18.315C12.9031 17.7925 11.9602 16.995 11.263 16H3V4H21V6.264C21.8103 6.83226 22.4917 7.56483 23 8.414V4C22.9984 3.47005 22.7872 2.96227 22.4125 2.58753C22.0377 2.2128 21.5299 2.00158 21 2H3C2.47005 2.00158 1.96227 2.2128 1.58753 2.58753C1.2128 2.96227 1.00158 3.47005 1 4V16C1.00158 16.5299 1.2128 17.0377 1.58753 17.4125C1.96227 17.7872 2.47005 17.9984 3 18H10V20H8V22H16V20H14V18.315Z" fill="#1D85FF"/>
<path d="M17 6C15.8133 6 14.6533 6.35189 13.6666 7.01118C12.6799 7.67047 11.9109 8.60754 11.4567 9.7039C11.0026 10.8003 10.8838 12.0067 11.1153 13.1705C11.3468 14.3344 11.9182 15.4035 12.7574 16.2426C13.5965 17.0818 14.6656 17.6532 15.8295 17.8847C16.9933 18.1162 18.1997 17.9974 19.2961 17.5433C20.3925 17.0892 21.3295 16.3201 21.9888 15.3334C22.6481 14.3467 23 13.1867 23 12C23.0003 11.212 22.8452 10.4317 22.5438 9.70359C22.2424 8.97552 21.8004 8.31398 21.2432 7.75677C20.686 7.19957 20.0245 6.75762 19.2964 6.45619C18.5683 6.15475 17.788 5.99974 17 6ZM17 16C16.2089 16 15.4355 15.7654 14.7777 15.3259C14.1199 14.8864 13.6072 14.2616 13.3045 13.5307C13.0017 12.7998 12.9225 11.9956 13.0769 11.2196C13.2312 10.4437 13.6122 9.73098 14.1716 9.17157C14.731 8.61216 15.4437 8.2312 16.2196 8.07686C16.9956 7.92252 17.7998 8.00173 18.5307 8.30448C19.2616 8.60723 19.8864 9.11992 20.3259 9.77772C20.7654 10.4355 21 11.2089 21 12C20.9987 13.0605 20.5768 14.0771 19.827 14.827C19.0771 15.5768 18.0605 15.9987 17 16Z" fill="#1D85FF"/>
<path d="M17 13C17.5523 13 18 12.5523 18 12C18 11.4477 17.5523 11 17 11C16.4477 11 16 11.4477 16 12C16 12.5523 16.4477 13 17 13Z" fill="#1D85FF"/>
</svg>
