<svg width="31" height="31" viewBox="0 0 31 31" fill="none" xmlns="http://www.w3.org/2000/svg">
<g clip-path="url(#clip0_77_144)">
<path fill-rule="evenodd" clip-rule="evenodd" d="M13.9454 3.23169C12.2511 3.23183 10.5815 3.63714 9.07571 4.41381C7.56995 5.19047 6.27175 6.31596 5.28943 7.69638C4.30711 9.0768 3.66915 10.6721 3.42877 12.3492C3.18839 14.0264 3.35257 15.7367 3.90761 17.3374C4.46264 18.9382 5.39244 20.383 6.61943 21.5513C7.84642 22.7197 9.33502 23.5777 10.961 24.0537C12.587 24.5297 14.3033 24.61 15.9667 24.2878C17.63 23.9657 19.1922 23.2504 20.5229 22.2017L25.0879 26.7667C25.3236 26.9944 25.6394 27.1204 25.9671 27.1175C26.2949 27.1147 26.6084 26.9832 26.8402 26.7515C27.0719 26.5197 27.2034 26.2062 27.2062 25.8784C27.2091 25.5507 27.0831 25.2349 26.8554 24.9992L22.2904 20.4342C23.5254 18.8675 24.2943 16.9847 24.5093 15.0013C24.7242 13.018 24.3764 11.0142 23.5057 9.21931C22.6349 7.4244 21.2765 5.91088 19.5858 4.85198C17.895 3.79307 15.9403 3.23156 13.9454 3.23169ZM5.82039 13.8567C5.82039 11.7018 6.67641 9.63518 8.20014 8.11145C9.72388 6.58771 11.7905 5.73169 13.9454 5.73169C16.1003 5.73169 18.1669 6.58771 19.6906 8.11145C21.2144 9.63518 22.0704 11.7018 22.0704 13.8567C22.0704 16.0116 21.2144 18.0782 19.6906 19.6019C18.1669 21.1257 16.1003 21.9817 13.9454 21.9817C11.7905 21.9817 9.72388 21.1257 8.20014 19.6019C6.67641 18.0782 5.82039 16.0116 5.82039 13.8567Z" fill="#74777C"/>
</g>
<defs>
<clipPath id="clip0_77_144">
<rect width="30" height="30" fill="white" transform="translate(0.820312 0.731689)"/>
</clipPath>
</defs>
</svg>
