<svg width="23" height="24" viewBox="0 0 23 24" fill="none" xmlns="http://www.w3.org/2000/svg">
<path d="M21.0172 2.56977L21.0755 2.75644L21.7195 4.99878C21.7778 5.20204 21.7606 5.41956 21.6709 5.61109C21.5813 5.80262 21.4253 5.9552 21.2318 6.04061L21.1198 6.08144L8.605 9.66894H21.625C21.8366 9.66931 22.0409 9.74634 22.2 9.88577C22.3592 10.0252 22.4625 10.2176 22.4907 10.4273L22.4988 10.5439V20.4594C22.4989 21.2764 22.1872 22.0627 21.6275 22.6578C21.0677 23.2529 20.302 23.612 19.4865 23.6619L19.2905 23.6678H4.70833C3.89133 23.6678 3.10509 23.3562 2.50999 22.7964C1.91488 22.2366 1.55575 21.4709 1.50583 20.6554L1.5 20.4583V10.6676L0.891001 8.54311C0.665926 7.75773 0.748951 6.91607 1.12314 6.1898C1.49733 5.46353 2.13449 4.90738 2.90467 4.63477L3.09133 4.57411L17.1077 0.554941C17.893 0.329867 18.7347 0.412891 19.461 0.787081C20.1872 1.16127 20.7434 1.79843 21.016 2.56861M20.7477 11.4178H3.25V20.4583C3.25 21.1629 3.7505 21.7509 4.41433 21.8863L4.559 21.9096L4.70833 21.9166H19.2917C19.6525 21.9165 20.0005 21.7826 20.2683 21.5408C20.5362 21.299 20.7049 20.9665 20.7418 20.6076L20.7488 20.4583L20.7477 11.4178ZM5.31733 5.75711L3.572 6.25877C3.22536 6.35824 2.92787 6.58261 2.73697 6.88857C2.54607 7.19453 2.4753 7.56036 2.53833 7.91544L2.57333 8.06127L2.97467 9.46244L3.31883 9.36327L5.31733 5.75711ZM10.866 4.16694L7.69617 5.07577L5.6965 8.68077L8.8675 7.77311L10.866 4.16694ZM16.417 2.57444L13.246 3.48444L11.2475 7.08944L14.4162 6.18177L16.417 2.57444ZM18.5718 2.30261L16.7973 5.49927L19.7945 4.63944L19.3932 3.23944C19.3341 3.03225 19.2298 2.84074 19.0878 2.67874C18.9457 2.51673 18.7695 2.38827 18.5718 2.30261Z" fill="#1D85FF"/>
</svg>
