<svg width="20" height="24" viewBox="0 0 20 24" fill="none" xmlns="http://www.w3.org/2000/svg">
<path d="M17.0001 0.0932617C17.6189 0.0932617 18.2124 0.339094 18.65 0.776679C19.0876 1.21426 19.3334 1.80776 19.3334 2.4266V15.9436C19.3333 16.5624 19.0874 17.1558 18.6497 17.5933L13.5001 22.7429C13.0626 23.1805 12.4692 23.4265 11.8504 23.4266H3.00008C2.38124 23.4266 1.78775 23.1808 1.35017 22.7432C0.912581 22.3056 0.666748 21.7121 0.666748 21.0933V2.4266C0.666748 1.80776 0.912581 1.21426 1.35017 0.776679C1.78775 0.339094 2.38124 0.0932617 3.00008 0.0932617H17.0001ZM17.0001 2.4266H3.00008V21.0933H10.0001V15.8433C10.0001 15.3791 10.1845 14.934 10.5126 14.6058C10.8408 14.2776 11.286 14.0933 11.7501 14.0933H17.0001V2.4266ZM16.5171 16.4266H12.3334V20.6103L16.5171 16.4266ZM7.66675 10.5933C7.97617 10.5933 8.27291 10.7162 8.49171 10.935C8.7105 11.1538 8.83341 11.4505 8.83341 11.7599C8.83341 12.0693 8.7105 12.3661 8.49171 12.5849C8.27291 12.8037 7.97617 12.9266 7.66675 12.9266H6.50008C6.19066 12.9266 5.89392 12.8037 5.67512 12.5849C5.45633 12.3661 5.33341 12.0693 5.33341 11.7599C5.33341 11.4505 5.45633 11.1538 5.67512 10.935C5.89392 10.7162 6.19066 10.5933 6.50008 10.5933H7.66675ZM13.5001 5.9266C13.8095 5.9266 14.1062 6.04951 14.325 6.2683C14.5438 6.4871 14.6667 6.78384 14.6667 7.09326C14.6667 7.40268 14.5438 7.69943 14.325 7.91822C14.1062 8.13701 13.8095 8.25993 13.5001 8.25993H6.50008C6.19066 8.25993 5.89392 8.13701 5.67512 7.91822C5.45633 7.69943 5.33341 7.40268 5.33341 7.09326C5.33341 6.78384 5.45633 6.4871 5.67512 6.2683C5.89392 6.04951 6.19066 5.9266 6.50008 5.9266H13.5001Z" fill="#86888D"/>
</svg>
