<svg width="28" height="28" viewBox="0 0 28 28" fill="none" xmlns="http://www.w3.org/2000/svg">
<g clip-path="url(#clip0_175_290)">
<path d="M18.0484 13.1752C17.9401 13.0668 17.8115 12.9808 17.6699 12.9221C17.5284 12.8634 17.3767 12.8331 17.2234 12.8331C17.0702 12.833 16.9184 12.8632 16.7768 12.9217C16.6352 12.9803 16.5066 13.0662 16.3982 13.1746C16.2898 13.2829 16.2038 13.4115 16.1451 13.553C16.0864 13.6946 16.0562 13.8463 16.0561 13.9996C16.056 14.1528 16.0862 14.3046 16.1448 14.4462C16.2034 14.5878 16.2893 14.7164 16.3976 14.8248C16.6163 15.0437 16.9131 15.1668 17.2226 15.1669C17.5321 15.167 17.8289 15.0442 18.0478 14.8254C18.2667 14.6066 18.3898 14.3099 18.3899 14.0004C18.39 13.6909 18.2672 13.3941 18.0484 13.1752ZM18.8732 10.7007C18.9809 10.5892 19.1096 10.5003 19.2519 10.4392C19.3943 10.3781 19.5474 10.3459 19.7023 10.3445C19.8572 10.3432 20.0108 10.3727 20.1542 10.4314C20.2976 10.49 20.4278 10.5766 20.5374 10.6862C20.6469 10.7957 20.7335 10.926 20.7922 11.0694C20.8509 11.2128 20.8804 11.3664 20.879 11.5213C20.8777 11.6762 20.8455 11.8293 20.7844 11.9716C20.7232 12.114 20.6343 12.2427 20.5229 12.3503C20.3029 12.5628 20.0082 12.6804 19.7023 12.6778C19.3964 12.6751 19.1038 12.5524 18.8875 12.3361C18.6712 12.1198 18.5485 11.8272 18.5458 11.5213C18.5431 11.2154 18.6607 10.9207 18.8732 10.7007ZM22.9974 13.1752C22.8898 13.0637 22.7611 12.9748 22.6187 12.9137C22.4764 12.8526 22.3233 12.8204 22.1684 12.819C22.0135 12.8177 21.8598 12.8472 21.7165 12.9059C21.5731 12.9645 21.4428 13.0511 21.3333 13.1607C21.2237 13.2702 21.1371 13.4005 21.0785 13.5439C21.0198 13.6873 20.9903 13.8409 20.9916 13.9958C20.993 14.1507 21.0252 14.3038 21.0863 14.4461C21.1474 14.5885 21.2363 14.7172 21.3477 14.8248C21.5678 15.0373 21.8625 15.1549 22.1684 15.1523C22.4743 15.1496 22.7669 15.0269 22.9832 14.8106C23.1995 14.5943 23.3222 14.3017 23.3249 13.9958C23.3275 13.6899 23.2099 13.3952 22.9974 13.1752ZM18.8732 15.6497C18.9816 15.5413 19.1103 15.4554 19.2519 15.3968C19.3935 15.3382 19.5453 15.3081 19.6985 15.3082C19.8517 15.3082 20.0035 15.3385 20.145 15.3971C20.2866 15.4558 20.4152 15.5418 20.5235 15.6502C20.6318 15.7586 20.7177 15.8873 20.7763 16.0289C20.8349 16.1705 20.865 16.3222 20.865 16.4755C20.8649 16.6287 20.8347 16.7804 20.776 16.922C20.7173 17.0636 20.6313 17.1922 20.5229 17.3005C20.304 17.5192 20.0072 17.6421 19.6977 17.642C19.3882 17.6419 19.0914 17.5188 18.8727 17.2999C18.6539 17.081 18.5311 16.7841 18.5312 16.4747C18.5313 16.1652 18.6543 15.8684 18.8732 15.6497ZM7.00008 15.1667H4.66675V12.8333H7.00008V10.5H9.33342V12.8333H11.6667V15.1667H9.33342V17.5H7.00008V15.1667Z" fill="#1D85FF"/>
<path fill-rule="evenodd" clip-rule="evenodd" d="M8.16667 5.83337C6.00073 5.83337 3.92351 6.69379 2.39196 8.22534C0.860414 9.75688 0 11.8341 0 14C0 16.166 0.860414 18.2432 2.39196 19.7747C3.92351 21.3063 6.00073 22.1667 8.16667 22.1667H19.8333C20.9058 22.1667 21.9678 21.9555 22.9586 21.5451C23.9494 21.1346 24.8497 20.5331 25.608 19.7747C26.3664 19.0164 26.9679 18.1161 27.3783 17.1253C27.7888 16.1345 28 15.0725 28 14C28 12.9276 27.7888 11.8656 27.3783 10.8748C26.9679 9.88397 26.3664 8.98368 25.608 8.22534C24.8497 7.46699 23.9494 6.86544 22.9586 6.45502C21.9678 6.04461 20.9058 5.83337 19.8333 5.83337H8.16667ZM19.8333 8.16671H8.16667C6.61957 8.16671 5.13584 8.78129 4.04188 9.87525C2.94791 10.9692 2.33333 12.4529 2.33333 14C2.33333 15.5471 2.94791 17.0309 4.04188 18.1248C5.13584 19.2188 6.61957 19.8334 8.16667 19.8334H19.8333C21.3804 19.8334 22.8642 19.2188 23.9581 18.1248C25.0521 17.0309 25.6667 15.5471 25.6667 14C25.6667 12.4529 25.0521 10.9692 23.9581 9.87525C22.8642 8.78129 21.3804 8.16671 19.8333 8.16671Z" fill="#1D85FF"/>
</g>
<defs>
<clipPath id="clip0_175_290">
<rect width="28" height="28" fill="white"/>
</clipPath>
</defs>
</svg>
